<svg id="LOGO" xmlns="http://www.w3.org/2000/svg" viewBox="0 0 850.39 226.77"><defs><style>.cls-1{fill:#010101;}</style></defs><path class="cls-1" d="M65,135.64H75a19.2,19.2,0,0,1,4.75.57A11,11,0,0,1,83.69,138a9,9,0,0,1,2.65,3.21,10.31,10.31,0,0,1,1,4.71v.2a10.63,10.63,0,0,1-1,4.79,9,9,0,0,1-2.65,3.23A11,11,0,0,1,79.77,156a19.69,19.69,0,0,1-4.75.56H69.3v14.28H65Zm10.29,17.49a8.25,8.25,0,0,0,5.76-1.8,6.66,6.66,0,0,0,2-5.2v-.19c0-2.5-.68-4.26-2.06-5.3a9.29,9.29,0,0,0-5.67-1.55h-6v14Z"/><path class="cls-1" d="M98.9,171.3a12.16,12.16,0,0,1-3.35-.45,7.47,7.47,0,0,1-2.73-1.37A6.6,6.6,0,0,1,91,167.11a7.87,7.87,0,0,1-.67-3.4A6.26,6.26,0,0,1,91.42,160a7.88,7.88,0,0,1,2.88-2.46,14.12,14.12,0,0,1,4.13-1.35,27.12,27.12,0,0,1,4.8-.42h3.7v-1.86c0-2.06-.43-3.53-1.28-4.43s-2.27-1.35-4.24-1.35q-5.31,0-5.91,4.58H91.42a8.85,8.85,0,0,1,1.1-3.74,7.81,7.81,0,0,1,2.32-2.49A9.33,9.33,0,0,1,98,145.07a15.94,15.94,0,0,1,3.62-.41,15.52,15.52,0,0,1,3.55.41,7.48,7.48,0,0,1,3,1.48,7.74,7.74,0,0,1,2.07,2.83,11.21,11.21,0,0,1,.78,4.48v17h-4.08V167.6a9.57,9.57,0,0,1-3.3,2.76A10.62,10.62,0,0,1,98.9,171.3Zm.4-3.25a10.45,10.45,0,0,0,3-.42,7.24,7.24,0,0,0,2.42-1.21,5.61,5.61,0,0,0,2.19-4.58v-3.2h-3.55a22.14,22.14,0,0,0-3.57.27,10.29,10.29,0,0,0-2.85.86,4.94,4.94,0,0,0-1.88,1.55,4.15,4.15,0,0,0-.66,2.39,4.47,4.47,0,0,0,1.08,3.18C96.22,167.66,97.49,168.05,99.3,168.05Z"/><path class="cls-1" d="M118.4,145.1h4.09v4.63a12.08,12.08,0,0,1,1.35-2,8.13,8.13,0,0,1,4.07-2.63,11.9,11.9,0,0,1,3.05-.44v3.84a18.12,18.12,0,0,0-3.5.49,6.56,6.56,0,0,0-2.68,1.33,5.85,5.85,0,0,0-1.7,2.49,11.18,11.18,0,0,0-.59,3.91v14.13H118.4Z"/><path class="cls-1" d="M144.35,171.2q-3.54,0-5.24-1.87a7,7,0,0,1-1.7-4.93V148.55h-3.69V145.1h3.69v-5.86h4.09v5.86h6v3.45h-6V164c0,2.49,1.06,3.74,3.2,3.74a8.74,8.74,0,0,0,1.72-.15,8.62,8.62,0,0,0,1.43-.39v3.45a8.7,8.7,0,0,1-1.43.39A11.41,11.41,0,0,1,144.35,171.2Z"/><path class="cls-1" d="M175.87,171.3a12.74,12.74,0,0,1-5.07-1,11.62,11.62,0,0,1-4-2.73,12.35,12.35,0,0,1-2.61-4.16,14.2,14.2,0,0,1-.94-5.22v-.4a14.21,14.21,0,0,1,1-5.31,12.78,12.78,0,0,1,2.64-4.17,11.55,11.55,0,0,1,4-2.7,13.79,13.79,0,0,1,10.11,0,11.76,11.76,0,0,1,4,2.68,12.58,12.58,0,0,1,2.63,4.14,14.27,14.27,0,0,1,1,5.32v.39a14.41,14.41,0,0,1-1,5.34,12,12,0,0,1-6.67,6.85A13.08,13.08,0,0,1,175.87,171.3Zm0-3.45a8.59,8.59,0,0,0,3.49-.69,7.13,7.13,0,0,0,2.66-2,9,9,0,0,0,1.68-3.06,12.58,12.58,0,0,0,.59-3.94v-.35a12.94,12.94,0,0,0-.59-4,8.87,8.87,0,0,0-1.7-3.09,7.58,7.58,0,0,0-2.66-2,8.43,8.43,0,0,0-3.47-.69,8.64,8.64,0,0,0-3.5.69,7.23,7.23,0,0,0-2.66,2,9,9,0,0,0-1.67,3.06,12.52,12.52,0,0,0-.59,4v.4a10.43,10.43,0,0,0,2.24,7A7.68,7.68,0,0,0,175.92,167.85Z"/><path class="cls-1" d="M195.17,148.55h-3.69V145.1h3.69v-4.19a8.89,8.89,0,0,1,1.92-6.1q1.92-2.17,5.76-2.17a8.19,8.19,0,0,1,1.63.13,11.68,11.68,0,0,1,1.43.37v3.49a5.66,5.66,0,0,0-1.31-.39,8.28,8.28,0,0,0-1.6-.15,3.3,3.3,0,0,0-2.88,1.22,5.47,5.47,0,0,0-.86,3.19v4.6h6.3v3.45h-6.3v22.3h-4.09Z"/><path class="cls-1" d="M231,135.64h10.39l11.43,35.21h-8.32L242.05,163H229.3l-2.41,7.83H219.4Zm.05,21.72h9.31l-4.63-15.22Z"/><path class="cls-1" d="M266,171.4a15.51,15.51,0,0,1-5.25-.87,11.44,11.44,0,0,1-7-6.64,14.4,14.4,0,0,1-1-5.59v-.4a14.43,14.43,0,0,1,1-5.59,12,12,0,0,1,7.09-6.89,14.45,14.45,0,0,1,5.17-.91,17.6,17.6,0,0,1,4.31.52,11.12,11.12,0,0,1,3.77,1.69,9.67,9.67,0,0,1,2.71,3.11,11.65,11.65,0,0,1,1.33,4.67h-6.75a5.11,5.11,0,0,0-1.65-3.29,5.38,5.38,0,0,0-3.57-1.09,5.58,5.58,0,0,0-4.48,2,8.62,8.62,0,0,0-1.67,5.67v.39q0,3.89,1.65,5.85a5.73,5.73,0,0,0,4.65,2,5.88,5.88,0,0,0,3.72-1.22,5.1,5.1,0,0,0,1.79-3.71h6.46a11.59,11.59,0,0,1-1,4.21,9.33,9.33,0,0,1-2.46,3.23,11.3,11.3,0,0,1-3.79,2.14A15.34,15.34,0,0,1,266,171.4Z"/><path class="cls-1" d="M292.63,171.4a15.55,15.55,0,0,1-5.25-.87,11.44,11.44,0,0,1-7-6.64,14.59,14.59,0,0,1-1-5.59v-.4a14.61,14.61,0,0,1,1-5.59,12,12,0,0,1,7.1-6.89,14.42,14.42,0,0,1,5.17-.91A17.72,17.72,0,0,1,297,145a11.07,11.07,0,0,1,3.76,1.69,9.55,9.55,0,0,1,2.71,3.11,11.49,11.49,0,0,1,1.33,4.67h-6.74a5.17,5.17,0,0,0-1.66-3.29,5.38,5.38,0,0,0-3.57-1.09,5.58,5.58,0,0,0-4.48,2,8.62,8.62,0,0,0-1.67,5.67v.39q0,3.89,1.65,5.85a5.73,5.73,0,0,0,4.65,2,5.84,5.84,0,0,0,3.72-1.22,5.14,5.14,0,0,0,1.8-3.71h6.45a11.58,11.58,0,0,1-1,4.21,9.48,9.48,0,0,1-2.47,3.23,11.21,11.21,0,0,1-3.79,2.14A15.34,15.34,0,0,1,292.63,171.4Z"/><path class="cls-1" d="M319.42,171.4a15.76,15.76,0,0,1-5.37-.89,11.72,11.72,0,0,1-4.24-2.61,11.54,11.54,0,0,1-2.83-4.09,14.25,14.25,0,0,1-1-5.51v-.4a14.46,14.46,0,0,1,1-5.51,12.43,12.43,0,0,1,2.83-4.24,12.69,12.69,0,0,1,4.19-2.68,14,14,0,0,1,5.22-1,14.86,14.86,0,0,1,4.78.76,11.13,11.13,0,0,1,4,2.34,11.42,11.42,0,0,1,2.75,4.06,15.43,15.43,0,0,1,1,5.94v2H313.21a7.57,7.57,0,0,0,1.8,5,7.27,7.27,0,0,0,8.37.76,4.36,4.36,0,0,0,1.6-2.61h6.75a9.22,9.22,0,0,1-3.82,6.43A14.49,14.49,0,0,1,319.42,171.4Zm5.41-16.21a6.49,6.49,0,0,0-1.62-4.35,5.43,5.43,0,0,0-4-1.41,5.49,5.49,0,0,0-4,1.5,7.18,7.18,0,0,0-1.94,4.26Z"/><path class="cls-1" d="M334.58,145.1h7.15v4.09a8.76,8.76,0,0,1,3-3.3,9.4,9.4,0,0,1,5.32-1.38,9.94,9.94,0,0,1,3.49.59,7.6,7.6,0,0,1,2.76,1.77,8.49,8.49,0,0,1,1.77,3.13,13.86,13.86,0,0,1,.64,4.46v16.39h-7.14V155.49a5.89,5.89,0,0,0-1.08-3.91,4.31,4.31,0,0,0-3.45-1.26,5.06,5.06,0,0,0-5.36,5.66v14.87h-7.15Z"/><path class="cls-1" d="M372.4,171.35q-4.08,0-6.2-2t-2.12-6.08V150.17h-3.3V145.1h3.3v-5.57h7.09v5.57h5.42v5.07h-5.42v12.41a3.23,3.23,0,0,0,.72,2.29,2.78,2.78,0,0,0,2.14.76,8.18,8.18,0,0,0,1.45-.12,5.91,5.91,0,0,0,1.26-.37v5.52a17.66,17.66,0,0,1-1.83.47A13.16,13.16,0,0,1,372.4,171.35Z"/><path class="cls-1" d="M388.26,171.4a10.27,10.27,0,0,1-3.47-.57,7.27,7.27,0,0,1-2.78-1.75,8,8,0,0,1-1.85-3,12.93,12.93,0,0,1-.67-4.36V145.1h7.1v15.61a5.73,5.73,0,0,0,1.13,3.87,4.18,4.18,0,0,0,3.35,1.3,5.1,5.1,0,0,0,5.36-5.66V145.1h7.1v25.75h-7.1v-4a8.24,8.24,0,0,1-3,3.27A9.31,9.31,0,0,1,388.26,171.4Z"/><path class="cls-1" d="M408,145.1h7.14V150a9.52,9.52,0,0,1,3.2-3.94,9.27,9.27,0,0,1,5.12-1.37v6.64a10.71,10.71,0,0,0-6.16,1.43q-2.16,1.49-2.16,5.17v12.9H408Z"/><path class="cls-1" d="M437.6,171.4a15.74,15.74,0,0,1-5.36-.89,12.11,12.11,0,0,1-7.07-6.7,14.25,14.25,0,0,1-1-5.51v-.4a14.46,14.46,0,0,1,1-5.51,12.43,12.43,0,0,1,2.83-4.24,12.59,12.59,0,0,1,4.19-2.68,13.93,13.93,0,0,1,5.22-1,14.8,14.8,0,0,1,4.77.76,11.13,11.13,0,0,1,4,2.34,11.31,11.31,0,0,1,2.76,4.06,15.44,15.44,0,0,1,1,5.94v2H431.4a7.57,7.57,0,0,0,1.8,5,7.27,7.27,0,0,0,8.37.76,4.41,4.41,0,0,0,1.6-2.61h6.74a9.18,9.18,0,0,1-3.81,6.43A14.51,14.51,0,0,1,437.6,171.4ZM443,155.19a6.49,6.49,0,0,0-1.62-4.35,6.17,6.17,0,0,0-8,.09,7.18,7.18,0,0,0-1.94,4.26Z"/><polygon class="cls-1" points="714.82 58.66 700.26 79.83 714.82 101 725.91 101 710.68 79.83 725.91 58.66 714.82 58.66"/><rect class="cls-1" x="686.43" y="58.66" width="9.6" height="42.33"/><path class="cls-1" d="M657.84,72.63V72.5a13.25,13.25,0,0,0-3.55-9.58c-2.76-2.79-7-4.26-12.15-4.26H622.4V101h9.5V66.56h9.45c4.85,0,7.63,2.35,7.63,6.43v.13c0,3.92-2.85,6.71-7.45,6.71H636.1L650.73,101h11.16L649.78,84.83C654.38,82.44,657.84,78.18,657.84,72.63Z"/><rect class="cls-1" x="65.02" y="58.27" width="9.4" height="42.73"/><polygon class="cls-1" points="159.09 101.04 167.89 101.04 167.89 84.24 188.28 84.24 188.28 75.31 167.89 75.31 167.89 67.2 191.03 67.2 191.03 58.27 159.09 58.27 159.09 101.04"/><rect class="cls-1" x="218.91" y="58.27" width="9.4" height="42.73"/><rect class="cls-1" x="312.82" y="58.27" width="9.4" height="42.73"/><polygon class="cls-1" points="350.36 67.26 363.06 67.26 363.06 101 372.46 101 372.46 67.26 385.16 67.26 385.16 58.27 350.36 58.27 350.36 67.26"/><polygon class="cls-1" points="429.23 75.42 419.03 58.27 408.04 58.27 424.47 84.15 424.47 101 433.87 101 433.87 83.97 450.29 58.27 439.61 58.27 429.23 75.42"/><polygon class="cls-1" points="516.48 88.65 516.37 88.34 506.58 58.66 499.11 58.66 489.22 88.65 489.12 88.33 480.08 58.78 470.88 58.78 485.19 101 492.79 101 502.73 72.2 512.66 101 520.26 101 534.58 58.78 525.62 58.78 516.48 88.65"/><path class="cls-1" d="M574.2,57.41c-12.78,0-22.8,9.71-22.8,22.11v.13c0,12.53,9.75,22,22.68,22,12.78,0,22.79-9.72,22.79-22.12V79.4C596.87,66.86,587.13,57.41,574.2,57.41Zm13.46,22.24c0,8-5.79,14-13.46,14s-13.59-6.19-13.59-14.09V79.4c0-8,5.79-14,13.47-14s13.58,6.19,13.58,14.08Z"/><polygon class="cls-1" points="99.68 57.2 99.68 69.85 136.03 102.07 136.03 89.42 99.68 57.2"/><path class="cls-1" d="M766,57.42h0Z"/><path class="cls-1" d="M766.3,93.78h0Z"/><path class="cls-1" d="M766,57.42h0Z"/><polygon class="cls-1" points="252.39 57.2 252.39 69.85 288.75 102.07 288.75 89.42 252.39 57.2"/><path class="cls-1" d="M767.89,101.63c9.62,0,15.59-4.57,15.59-12.72v-.12c0-7.7-5.61-10.53-13.51-13-7-1.87-9.56-3.2-9.56-6.32v-.12c0-2.44,2.2-4,5.62-4.1a49,49,0,0,1,13.89,2.27V59.68a50.14,50.14,0,0,0-13.67-2.27c-8.79.12-14.7,4.72-14.7,12.35v.12c.54,7.92,6.39,10.51,14.51,13,7,1.81,8.81,3.36,8.81,6.14v.12c0,2.73-2.75,4.62-6.8,4.62h-1.75a49.66,49.66,0,0,1-13.77-2.27v7.89a48.43,48.43,0,0,0,14,2.27Z"/></svg>